<svg width="24" height="24" viewBox="0 0 24 24" fill="none" xmlns="http://www.w3.org/2000/svg">
<path d="M2.99202 10.5651C2.99202 9.9907 2.99202 9.70352 3.06585 9.43905C3.13125 9.20478 3.23873 8.98444 3.383 8.78886C3.54588 8.56806 3.77196 8.39175 4.22412 8.03912L10.9884 2.764C11.3388 2.49075 11.514 2.35412 11.7074 2.3016C11.8781 2.25526 12.058 2.25526 12.2287 2.3016C12.4222 2.35412 12.5974 2.49075 12.9478 2.764L19.712 8.03913C20.1642 8.39175 20.3903 8.56806 20.5532 8.78886C20.6974 8.98444 20.8049 9.20478 20.8703 9.43905C20.9441 9.70352 20.9441 9.9907 20.9441 10.5651V17.8C20.9441 18.9201 20.9441 19.4801 20.7267 19.908C20.5355 20.2843 20.2304 20.5903 19.855 20.782C19.4283 21 18.8698 21 17.7527 21H6.18351C5.06638 21 4.50782 21 4.08113 20.782C3.70581 20.5903 3.40066 20.2843 3.20943 19.908C2.99202 19.4801 2.99202 18.9201 2.99202 17.8V10.5651Z" stroke="#F7CE03" stroke-width="2" stroke-linecap="round" stroke-linejoin="round"/>
</svg>
