<svg width="24" height="24" viewBox="0 0 24 24" fill="none" xmlns="http://www.w3.org/2000/svg">
<path d="M2.99203 7.8C2.99203 6.11984 2.99203 5.27976 3.31815 4.63803C3.605 4.07354 4.06272 3.6146 4.62571 3.32698C5.26574 3 6.10358 3 7.77927 3H16.1569C17.8326 3 18.6705 3 19.3105 3.32698C19.8735 3.6146 20.3312 4.07354 20.6181 4.63803C20.9442 5.27976 20.9442 6.11984 20.9442 7.8V13.5C20.9442 14.8978 20.9442 15.5967 20.7164 16.1481C20.4127 16.8831 19.8303 17.4672 19.0971 17.7716C18.5473 18 17.8502 18 16.4561 18C15.9689 18 15.7252 18 15.4992 18.0535C15.1978 18.1248 14.9171 18.2656 14.6794 18.4645C14.5011 18.6137 14.3549 18.8091 14.0625 19.2L12.6064 21.1467C12.3899 21.4362 12.2816 21.5809 12.1489 21.6327C12.0326 21.678 11.9036 21.678 11.7873 21.6327C11.6546 21.5809 11.5463 21.4362 11.3298 21.1467L9.87368 19.2C9.58132 18.8091 9.43513 18.6137 9.25682 18.4645C9.01908 18.2656 8.7384 18.1248 8.43702 18.0535C8.21099 18 7.96735 18 7.48007 18C6.08596 18 5.38891 18 4.83906 17.7716C4.10593 17.4672 3.52346 16.8831 3.21979 16.1481C2.99203 15.5967 2.99203 14.8978 2.99203 13.5V7.8Z" stroke="white" stroke-width="2" stroke-linecap="round" stroke-linejoin="round"/>
</svg>
