<svg width="24" height="24" viewBox="0 0 24 24" fill="none" xmlns="http://www.w3.org/2000/svg">
<path d="M11.9681 15C8.80644 15 5.99481 16.5306 4.20478 18.906C3.81952 19.4172 3.62689 19.6728 3.63319 20.0183C3.63806 20.2852 3.80522 20.6219 4.01466 20.7867C4.28576 21 4.66144 21 5.4128 21H18.5234C19.2747 21 19.6504 21 19.9215 20.7867C20.131 20.6219 20.2981 20.2852 20.303 20.0183C20.3093 19.6728 20.1167 19.4172 19.7314 18.906C17.9414 16.5306 15.1297 15 11.9681 15Z" stroke="white" stroke-width="2" stroke-linecap="round" stroke-linejoin="round"/>
<path d="M11.9681 12C14.4468 12 16.4561 9.98528 16.4561 7.5C16.4561 5.01472 14.4468 3 11.9681 3C9.48942 3 7.48006 5.01472 7.48006 7.5C7.48006 9.98528 9.48942 12 11.9681 12Z" stroke="white" stroke-width="2" stroke-linecap="round" stroke-linejoin="round"/>
</svg>
