<svg width="24" height="24" viewBox="0 0 24 24" fill="none" xmlns="http://www.w3.org/2000/svg">
<path d="M20.9441 10H2.99202M15.9574 2V6M7.97872 2V6M7.77925 22H16.1569C17.8326 22 18.6704 22 19.3105 21.673C19.8735 21.3854 20.3312 20.9265 20.618 20.362C20.9441 19.7202 20.9441 18.8802 20.9441 17.2V8.8C20.9441 7.11984 20.9441 6.27976 20.618 5.63803C20.3312 5.07354 19.8735 4.6146 19.3105 4.32698C18.6704 4 17.8326 4 16.1569 4H7.77925C6.10356 4 5.26572 4 4.62569 4.32698C4.06271 4.6146 3.60499 5.07354 3.31813 5.63803C2.99202 6.27976 2.99202 7.11984 2.99202 8.8V17.2C2.99202 18.8802 2.99202 19.7202 3.31813 20.362C3.60499 20.9265 4.06271 21.3854 4.62569 21.673C5.26572 22 6.10356 22 7.77925 22Z" stroke="white" stroke-width="2" stroke-linecap="round" stroke-linejoin="round"/>
</svg>
